<svg width="1300" height="1300" viewBox="0 0 1300 1300" fill="none" xmlns="http://www.w3.org/2000/svg">
<rect width="1300" height="1300" rx="178" fill="white"/>
<path d="M844.622 1100.22H796.392C796.392 1049.58 796.422 999.147 796.392 948.717C796.362 912.917 796.182 877.117 796.202 841.317C796.222 792.507 796.392 743.707 796.452 694.897C796.502 651.087 796.492 607.287 796.532 563.477C796.532 558.407 795.562 554.347 790.462 551.427C771.232 540.377 752.242 528.907 733.182 517.577C715.232 506.907 697.332 496.177 679.362 485.547C671.952 481.157 664.462 476.897 656.932 472.707C651.862 469.877 649.992 470.887 649.982 476.227C649.932 503.877 649.862 531.527 649.862 559.177C649.862 666.317 649.862 773.447 649.892 880.587C649.912 941.397 649.992 1002.2 650.042 1063.01C650.042 1075.3 650.042 1087.59 650.042 1100.21H317.892C318.032 1093.52 318.302 1086.95 318.282 1080.39C318.172 1044.41 317.922 1008.42 317.852 972.437C317.762 927.297 317.772 882.157 317.802 837.017C317.822 806.367 318.032 775.707 317.972 745.057C317.972 740.937 320.272 739.057 323.232 737.377C335.762 730.277 348.372 723.307 360.862 716.137C380.552 704.827 400.092 693.247 419.852 682.067C431.652 675.387 443.692 669.117 455.772 662.967C459.422 661.107 460.822 658.757 460.802 654.757C460.592 606.277 460.552 557.797 460.292 509.317C460.272 504.967 461.592 502.277 465.402 500.087C479.192 492.147 492.762 483.827 506.522 475.837C532.742 460.607 559.012 445.467 585.292 430.347C604.252 419.437 623.212 408.537 642.332 397.927C644.162 396.917 647.612 397.117 649.492 398.187C666.742 408.047 683.802 418.267 700.952 428.317C714.692 436.357 728.462 444.327 742.262 452.267C758.612 461.677 774.972 471.087 791.402 480.367C806.532 488.917 821.712 497.387 836.972 505.697C842.962 508.957 845.612 513.107 845.432 520.407C844.592 555.027 844.392 589.667 843.922 624.297C843.862 628.957 845.742 631.807 850.042 634.067C860.302 639.457 870.182 645.577 880.302 651.237C896.202 660.127 912.222 668.797 928.112 677.707C945.462 687.447 962.722 697.357 980.032 707.177C984.402 709.657 985.312 713.657 985.292 718.237C985.192 740.567 985.152 762.887 985.082 785.217C984.922 834.867 984.702 884.517 984.622 934.157C984.542 987.127 984.612 1040.11 984.622 1093.08C984.622 1095.36 984.622 1097.64 984.622 1100.22H934.902C934.902 1048.97 934.942 998.037 934.902 947.117C934.842 885.487 934.712 823.847 934.632 762.217C934.612 747.787 934.682 747.717 921.822 740.397C899.202 727.527 876.542 714.707 853.852 701.957C844.292 696.587 844.122 696.687 844.132 707.737C844.182 767.377 844.352 827.007 844.372 886.647C844.372 920.627 844.092 954.607 844.082 988.587C844.062 1023.91 844.202 1059.23 844.292 1094.55C844.292 1096.33 844.512 1098.11 844.652 1100.23L844.622 1100.22Z" fill="#17354E"/>
<path d="M170.362 1100.25H72.1719C72.1719 1081.52 72.1919 1062.92 72.1719 1044.32C72.1219 1009.17 71.9819 974.007 72.0019 938.857C72.0119 898.707 72.0719 858.557 72.2619 818.407C72.3819 793.917 72.2619 769.417 73.2619 744.957C73.8819 729.887 76.0319 714.847 78.1819 699.897C80.5119 683.647 83.5119 667.497 86.4719 651.347C88.5019 640.287 90.6519 629.227 93.3419 618.307C95.4319 609.827 98.4019 601.567 101.042 593.237C103.242 586.307 105.302 579.327 107.842 572.517C112.162 560.967 116.632 549.467 121.372 538.077C125.492 528.167 129.742 518.287 134.552 508.697C140.182 497.477 146.132 486.377 152.592 475.617C159.852 463.527 167.372 451.537 175.642 440.127C185.572 426.417 195.762 412.787 207.022 400.177C222.742 382.587 238.802 365.147 256.132 349.187C272.592 334.037 290.802 320.757 308.412 306.867C329.452 290.257 352.722 277.117 376.252 264.497C388.352 258.007 400.762 251.977 413.412 246.637C425.042 241.717 437.182 238.007 449.092 233.747C458.722 230.297 468.312 226.707 477.992 223.417C482.212 221.977 486.622 221.047 490.972 220.037C508.212 216.017 525.392 211.637 542.752 208.227C553.142 206.187 563.822 205.577 574.392 204.517C590.602 202.897 606.812 201.247 623.052 199.987C645.862 198.227 668.632 198.917 691.392 201.287C706.102 202.817 720.912 203.387 735.602 205.027C744.452 206.007 753.172 208.177 761.942 209.847C767.462 210.897 772.982 211.937 778.472 213.117C788.512 215.267 798.602 217.217 808.532 219.797C816.662 221.907 824.592 224.817 832.612 227.357C839.992 229.697 847.512 231.687 854.732 234.427C866.262 238.807 877.722 243.427 889.002 248.407C901.552 253.957 914.342 259.217 926.192 266.057C948.002 278.647 969.682 291.597 990.512 305.727C1007.25 317.087 1023.53 329.457 1038.44 343.107C1056.44 359.587 1073.52 377.237 1089.61 395.607C1103.8 411.807 1116.53 429.357 1129.06 446.917C1138.87 460.657 1147.9 475.037 1156.32 489.677C1163.39 501.977 1169.28 514.977 1175.33 527.837C1180.23 538.267 1185.04 548.787 1189.07 559.567C1193.74 572.087 1197.62 584.897 1201.64 597.647C1204.47 606.607 1207.09 615.647 1209.54 624.717C1211.05 630.297 1212.29 635.977 1213.27 641.677C1215.84 656.717 1218.83 671.727 1220.51 686.877C1223.32 712.177 1227.05 737.557 1227.23 762.917C1228.01 872.877 1227.65 982.847 1227.7 1092.82C1227.7 1095.13 1227.7 1097.43 1227.7 1100.13H1129.28C1129.28 1046.13 1129.26 992.517 1129.28 938.897C1129.3 902.077 1129.78 865.257 1129.33 828.447C1128.91 793.977 1128.53 759.457 1126.21 725.097C1124.89 705.547 1120.07 686.187 1116.17 666.877C1113.59 654.097 1110.61 641.297 1106.44 628.967C1100.59 611.637 1094.12 594.447 1086.72 577.737C1079.42 561.267 1070.92 545.287 1062.35 529.417C1057.32 520.097 1051.68 510.987 1045.3 502.557C1032.67 485.887 1019.58 469.537 1006.17 453.487C998.822 444.697 990.862 436.317 982.402 428.587C970.392 417.607 958.232 406.657 945.132 397.057C927.352 384.027 909.072 371.547 890.172 360.217C875.492 351.427 859.712 344.377 844.092 337.277C830.862 331.257 817.332 325.797 803.632 320.967C792.152 316.917 780.302 313.817 768.462 310.887C756.102 307.827 743.602 305.307 731.102 302.877C724.112 301.527 717.022 300.517 709.932 299.927C681.392 297.557 652.822 294.987 624.172 297.177C606.772 298.507 589.372 300.257 572.112 302.757C560.192 304.487 548.492 307.727 536.722 310.457C527.572 312.587 518.422 314.787 509.382 317.327C502.872 319.157 496.432 321.377 490.122 323.827C479.032 328.137 467.892 332.387 457.072 337.337C444.032 343.297 430.942 349.307 418.552 356.477C401.232 366.507 384.162 377.087 367.702 388.467C354.602 397.527 342.472 408.007 330.112 418.087C309.102 435.237 291.422 455.687 274.882 476.937C261.662 493.927 249.812 512.067 238.282 530.287C229.822 543.667 222.242 557.697 215.412 571.977C209.242 584.897 204.462 598.497 199.412 611.917C195.472 622.387 191.612 632.927 188.522 643.677C185.742 653.367 183.862 663.327 181.922 673.237C179.562 685.287 176.972 697.327 175.532 709.497C173.362 727.817 170.752 746.247 170.672 764.637C170.182 874.777 170.362 984.917 170.322 1095.07C170.322 1096.69 170.322 1098.31 170.322 1100.22L170.362 1100.25Z" fill="#17354E"/>
<path d="M753.222 904.457C743.532 899.607 734.442 895.007 725.312 890.487C719.922 887.817 716.862 884.677 717.132 877.537C717.782 860.137 717.042 842.677 716.942 825.237C716.942 823.877 717.232 822.197 718.062 821.287C718.492 820.807 720.542 821.437 721.642 821.997C731.052 826.767 740.482 831.507 749.732 836.577C751.392 837.487 753.292 839.857 753.312 841.577C753.522 856.037 753.312 870.497 753.242 884.957C753.212 891.377 753.242 897.797 753.242 904.447L753.222 904.457Z" fill="#17354E"/>
<path d="M753.502 776.997C747.702 774.107 742.412 771.487 737.132 768.827C731.962 766.227 726.872 763.477 721.642 761.017C718.422 759.497 716.772 757.347 716.802 753.687C716.922 735.877 716.922 718.057 717.002 700.247C717.002 699.147 717.332 698.037 717.672 695.927C721.952 697.937 725.782 699.617 729.502 701.527C736.712 705.227 744.002 708.817 750.932 712.987C752.752 714.077 754.412 717.087 754.432 719.237C754.602 737.197 754.382 755.167 754.232 773.137C754.222 774.357 753.782 775.577 753.492 777.017L753.502 776.997Z" fill="#17354E"/>
<path d="M717.012 568.807C718.382 569.017 719.282 568.927 719.932 569.287C730.232 574.897 740.462 580.637 750.802 586.177C753.752 587.757 754.512 589.897 754.422 593.077C753.972 608.697 753.672 624.327 753.462 639.957C753.412 643.347 753.962 646.747 754.332 651.337C747.192 647.307 740.902 643.767 734.622 640.217C729.722 637.447 724.702 634.867 720.022 631.767C718.522 630.767 717.072 628.417 717.042 626.657C716.762 608.387 716.762 590.107 716.712 571.827C716.712 571.027 716.872 570.217 717.012 568.797V568.807Z" fill="#17354E"/>
</svg>
