<svg width="1156" height="902" viewBox="0 0 1156 902" fill="none" xmlns="http://www.w3.org/2000/svg">
<path d="M772.622 901.217H724.392C724.392 850.577 724.422 800.147 724.392 749.717C724.362 713.917 724.182 678.117 724.202 642.317C724.222 593.507 724.392 544.707 724.452 495.897C724.502 452.087 724.492 408.287 724.532 364.477C724.532 359.407 723.562 355.347 718.462 352.427C699.232 341.377 680.242 329.907 661.182 318.577C643.232 307.907 625.332 297.177 607.362 286.547C599.952 282.157 592.462 277.897 584.932 273.707C579.862 270.877 577.992 271.887 577.982 277.227C577.932 304.877 577.862 332.527 577.862 360.177C577.862 467.317 577.862 574.447 577.892 681.587C577.912 742.397 577.992 803.197 578.042 864.007C578.042 876.297 578.042 888.587 578.042 901.207H245.892C246.032 894.517 246.302 887.947 246.282 881.387C246.172 845.407 245.922 809.417 245.852 773.437C245.762 728.297 245.772 683.157 245.802 638.017C245.822 607.367 246.032 576.707 245.972 546.057C245.972 541.937 248.272 540.057 251.232 538.377C263.762 531.277 276.372 524.307 288.862 517.137C308.552 505.827 328.092 494.247 347.852 483.067C359.652 476.387 371.692 470.117 383.772 463.967C387.422 462.107 388.822 459.757 388.802 455.757C388.592 407.277 388.552 358.797 388.292 310.317C388.272 305.967 389.592 303.277 393.402 301.087C407.192 293.147 420.762 284.827 434.522 276.837C460.742 261.607 487.012 246.467 513.292 231.347C532.252 220.437 551.212 209.537 570.332 198.927C572.162 197.917 575.612 198.117 577.492 199.187C594.742 209.047 611.802 219.267 628.952 229.317C642.692 237.357 656.462 245.327 670.262 253.267C686.612 262.677 702.972 272.087 719.402 281.367C734.532 289.917 749.712 298.387 764.972 306.697C770.962 309.957 773.612 314.107 773.432 321.407C772.592 356.027 772.392 390.667 771.922 425.297C771.862 429.957 773.742 432.807 778.042 435.067C788.302 440.457 798.182 446.577 808.302 452.237C824.202 461.127 840.222 469.797 856.112 478.707C873.462 488.447 890.722 498.357 908.032 508.177C912.402 510.657 913.312 514.657 913.292 519.237C913.192 541.567 913.152 563.887 913.082 586.217C912.922 635.867 912.702 685.517 912.622 735.157C912.542 788.127 912.612 841.107 912.622 894.077C912.622 896.357 912.622 898.637 912.622 901.217H862.902C862.902 849.967 862.942 799.037 862.902 748.117C862.842 686.487 862.712 624.847 862.632 563.217C862.612 548.787 862.682 548.717 849.822 541.397C827.202 528.527 804.542 515.707 781.852 502.957C772.292 497.587 772.122 497.687 772.132 508.737C772.182 568.377 772.352 628.007 772.372 687.647C772.372 721.627 772.092 755.607 772.082 789.587C772.062 824.907 772.202 860.227 772.292 895.547C772.292 897.327 772.512 899.107 772.652 901.227L772.622 901.217Z" fill="#17354E"/>
<path d="M98.3619 901.247H0.171941C0.171941 882.517 0.191941 863.917 0.171941 845.317C0.121941 810.167 -0.018059 775.007 0.001941 739.857C0.011941 699.707 0.071941 659.557 0.261941 619.407C0.381941 594.917 0.261941 570.417 1.26194 545.957C1.88194 530.887 4.03194 515.847 6.18194 500.897C8.51194 484.647 11.5119 468.497 14.4719 452.347C16.5019 441.287 18.6519 430.227 21.3419 419.307C23.4319 410.827 26.4019 402.567 29.0419 394.237C31.2419 387.307 33.3019 380.327 35.8419 373.517C40.1619 361.967 44.6319 350.467 49.3719 339.077C53.4919 329.167 57.7419 319.287 62.5519 309.697C68.1819 298.477 74.1319 287.377 80.5919 276.617C87.8519 264.527 95.3719 252.537 103.642 241.127C113.572 227.417 123.762 213.787 135.022 201.177C150.742 183.587 166.802 166.147 184.132 150.187C200.592 135.037 218.802 121.757 236.412 107.867C257.452 91.2573 280.722 78.1173 304.252 65.4973C316.352 59.0073 328.762 52.9773 341.412 47.6373C353.042 42.7173 365.182 39.0073 377.092 34.7473C386.722 31.2973 396.312 27.7073 405.992 24.4173C410.212 22.9773 414.622 22.0473 418.972 21.0373C436.212 17.0173 453.392 12.6373 470.752 9.22734C481.142 7.18734 491.822 6.57734 502.392 5.51734C518.602 3.89734 534.812 2.24734 551.052 0.987341C573.862 -0.772659 596.632 -0.0826592 619.392 2.28734C634.102 3.81734 648.912 4.38734 663.602 6.02734C672.452 7.00734 681.172 9.17734 689.942 10.8473C695.462 11.8973 700.982 12.9373 706.472 14.1173C716.512 16.2673 726.602 18.2173 736.532 20.7973C744.662 22.9073 752.592 25.8173 760.612 28.3573C767.992 30.6973 775.512 32.6873 782.732 35.4273C794.262 39.8073 805.722 44.4273 817.002 49.4073C829.552 54.9573 842.342 60.2173 854.192 67.0573C876.002 79.6473 897.682 92.5973 918.512 106.727C935.252 118.087 951.532 130.457 966.442 144.107C984.442 160.587 1001.52 178.237 1017.61 196.607C1031.8 212.807 1044.53 230.357 1057.06 247.917C1066.87 261.657 1075.9 276.037 1084.32 290.677C1091.39 302.977 1097.28 315.977 1103.33 328.837C1108.23 339.267 1113.04 349.787 1117.07 360.567C1121.74 373.087 1125.62 385.897 1129.64 398.647C1132.47 407.607 1135.09 416.647 1137.54 425.717C1139.05 431.297 1140.29 436.977 1141.27 442.677C1143.84 457.717 1146.83 472.727 1148.51 487.877C1151.32 513.177 1155.05 538.557 1155.23 563.917C1156.01 673.877 1155.65 783.847 1155.7 893.817C1155.7 896.127 1155.7 898.427 1155.7 901.127H1057.28C1057.28 847.127 1057.26 793.517 1057.28 739.897C1057.3 703.077 1057.78 666.257 1057.33 629.447C1056.91 594.977 1056.53 560.457 1054.21 526.097C1052.89 506.547 1048.07 487.187 1044.17 467.877C1041.59 455.097 1038.61 442.297 1034.44 429.967C1028.59 412.637 1022.12 395.447 1014.72 378.737C1007.42 362.267 998.922 346.287 990.352 330.417C985.322 321.097 979.682 311.987 973.302 303.557C960.672 286.887 947.582 270.537 934.172 254.487C926.822 245.697 918.862 237.317 910.402 229.587C898.392 218.607 886.232 207.657 873.132 198.057C855.352 185.027 837.072 172.547 818.172 161.217C803.492 152.427 787.712 145.377 772.092 138.277C758.862 132.257 745.332 126.797 731.632 121.967C720.152 117.917 708.302 114.817 696.462 111.887C684.102 108.827 671.602 106.307 659.102 103.877C652.112 102.527 645.022 101.517 637.932 100.927C609.392 98.5573 580.822 95.9873 552.172 98.1773C534.772 99.5073 517.372 101.257 500.112 103.757C488.192 105.487 476.492 108.727 464.722 111.457C455.572 113.587 446.422 115.787 437.382 118.327C430.872 120.157 424.432 122.377 418.122 124.827C407.032 129.137 395.892 133.387 385.072 138.337C372.032 144.297 358.942 150.307 346.552 157.477C329.232 167.507 312.162 178.087 295.702 189.467C282.602 198.527 270.472 209.007 258.112 219.087C237.102 236.237 219.422 256.687 202.882 277.937C189.662 294.927 177.812 313.067 166.282 331.287C157.822 344.667 150.242 358.697 143.412 372.977C137.242 385.897 132.462 399.497 127.412 412.917C123.472 423.387 119.612 433.927 116.522 444.677C113.742 454.367 111.862 464.327 109.922 474.237C107.562 486.287 104.972 498.327 103.532 510.497C101.362 528.817 98.7519 547.247 98.6719 565.637C98.1819 675.777 98.3619 785.917 98.3219 896.067C98.3219 897.687 98.3219 899.307 98.3219 901.217L98.3619 901.247Z" fill="#17354E"/>
<path d="M681.222 705.457C671.532 700.607 662.442 696.007 653.312 691.487C647.922 688.817 644.862 685.677 645.132 678.537C645.782 661.137 645.042 643.677 644.942 626.237C644.942 624.877 645.232 623.197 646.062 622.287C646.492 621.807 648.542 622.437 649.642 622.997C659.052 627.767 668.482 632.507 677.732 637.577C679.392 638.487 681.292 640.857 681.312 642.577C681.522 657.037 681.312 671.497 681.242 685.957C681.212 692.377 681.242 698.797 681.242 705.447L681.222 705.457Z" fill="#17354E"/>
<path d="M681.502 577.997C675.702 575.107 670.412 572.487 665.132 569.827C659.962 567.227 654.872 564.477 649.642 562.017C646.422 560.497 644.772 558.347 644.802 554.687C644.922 536.877 644.922 519.057 645.002 501.247C645.002 500.147 645.332 499.037 645.672 496.927C649.952 498.937 653.782 500.617 657.502 502.527C664.712 506.227 672.002 509.817 678.932 513.987C680.752 515.077 682.412 518.087 682.432 520.237C682.602 538.197 682.382 556.167 682.232 574.137C682.222 575.357 681.782 576.577 681.492 578.017L681.502 577.997Z" fill="#17354E"/>
<path d="M645.012 369.807C646.382 370.017 647.282 369.927 647.932 370.287C658.232 375.897 668.462 381.637 678.802 387.177C681.752 388.757 682.512 390.897 682.422 394.077C681.972 409.697 681.672 425.327 681.462 440.957C681.412 444.347 681.962 447.747 682.332 452.337C675.192 448.307 668.902 444.767 662.622 441.217C657.722 438.447 652.702 435.867 648.022 432.767C646.522 431.767 645.072 429.417 645.042 427.657C644.762 409.387 644.762 391.107 644.712 372.827C644.712 372.027 644.872 371.217 645.012 369.797V369.807Z" fill="#17354E"/>
</svg>
